<?xml version="1.0" encoding="UTF-8" standalone="no"?>
<!-- Created with Inkscape (http://www.inkscape.org/) -->

<svg
   xmlns:dc="http://purl.org/dc/elements/1.1/"
   xmlns:cc="http://creativecommons.org/ns#"
   xmlns:rdf="http://www.w3.org/1999/02/22-rdf-syntax-ns#"
   xmlns:svg="http://www.w3.org/2000/svg"
   xmlns="http://www.w3.org/2000/svg"
   xmlns:sodipodi="http://sodipodi.sourceforge.net/DTD/sodipodi-0.dtd"
   xmlns:inkscape="http://www.inkscape.org/namespaces/inkscape"
   width="3.99667mm"
   height="6.38517mm"
   viewBox="0 0 3.99667 6.38517"
   version="1.1"
   id="svg5365"
   inkscape:version="0.92.4 (5da689c313, 2019-01-14)"
   sodipodi:docname="arrow.svg">
  <defs
     id="defs5359" />
  <sodipodi:namedview
     id="base"
     pagecolor="#ffffff"
     bordercolor="#666666"
     borderopacity="1.0"
     inkscape:pageopacity="0.0"
     inkscape:pageshadow="2"
     inkscape:zoom="15.839192"
     inkscape:cx="-0.81126628"
     inkscape:cy="8.6565445"
     inkscape:document-units="mm"
     inkscape:current-layer="svg5365"
     showgrid="false"
     inkscape:window-width="2560"
     inkscape:window-height="1361"
     inkscape:window-x="-9"
     inkscape:window-y="-9"
     inkscape:window-maximized="1" />
  <metadata
     id="metadata5362">
    <rdf:RDF>
      <cc:Work
         rdf:about="">
        <dc:format>image/svg+xml</dc:format>
        <dc:type
           rdf:resource="http://purl.org/dc/dcmitype/StillImage" />
        <dc:title></dc:title>
      </cc:Work>
    </rdf:RDF>
  </metadata>
  <path
     inkscape:connector-curvature="0"
     style="fill:#ffffff;fill-opacity:1;stroke:none;stroke-width:0.26458332;stroke-opacity:1"
     d="m 0.8041,2e-5 c -0.0454,0 -0.0908,0.0174 -0.12558,0.0522 L 0.0522,0.67854 c -0.0696,0.0695 -0.0696,0.18159 0,0.25115 L 2.31511,3.1926 0.0522,5.45551 c -0.0696,0.0695 -0.0696,0.18159 0,0.25115 l 0.62632,0.62631 c 0.0696,0.0696 0.1816,0.0696 0.25115,0 L 3.31815,3.94449 3.94447,3.31817 c 0.0348,-0.0348 0.0522,-0.0802 0.0522,-0.12557 0,-0.0227 -0.004,-0.0453 -0.0129,-0.0667 C 3.97477,3.1045 3.96187,3.0844 3.94447,3.067 L 3.31815,2.44069 0.92967,0.0522 C 0.89487,0.0174 0.84947,0 0.80409,0 Z"
     id="rect4543"
     inkscape:label="arrow" />
</svg>
