<?xml version="1.0" encoding="UTF-8" standalone="no"?>
<!-- Created with Inkscape (http://www.inkscape.org/) -->

<svg
   xmlns:dc="http://purl.org/dc/elements/1.1/"
   xmlns:cc="http://creativecommons.org/ns#"
   xmlns:rdf="http://www.w3.org/1999/02/22-rdf-syntax-ns#"
   xmlns:svg="http://www.w3.org/2000/svg"
   xmlns="http://www.w3.org/2000/svg"
   xmlns:sodipodi="http://sodipodi.sourceforge.net/DTD/sodipodi-0.dtd"
   xmlns:inkscape="http://www.inkscape.org/namespaces/inkscape"
   width="9.8924236mm"
   height="11.622278mm"
   viewBox="0 0 9.8924236 11.622278"
   version="1.1"
   id="svg932"
   inkscape:version="0.92.4 (5da689c313, 2019-01-14)"
   sodipodi:docname="attach.svg">
  <defs
     id="defs926" />
  <sodipodi:namedview
     id="base"
     pagecolor="#ffffff"
     bordercolor="#666666"
     borderopacity="1.0"
     inkscape:pageopacity="0.0"
     inkscape:pageshadow="2"
     inkscape:zoom="11.2"
     inkscape:cx="11.276028"
     inkscape:cy="16.108426"
     inkscape:document-units="mm"
     inkscape:current-layer="svg932"
     showgrid="false"
     inkscape:window-width="2560"
     inkscape:window-height="1361"
     inkscape:window-x="-9"
     inkscape:window-y="-9"
     inkscape:window-maximized="1" />
  <metadata
     id="metadata929">
    <rdf:RDF>
      <cc:Work
         rdf:about="">
        <dc:format>image/svg+xml</dc:format>
        <dc:type
           rdf:resource="http://purl.org/dc/dcmitype/StillImage" />
        <dc:title></dc:title>
      </cc:Work>
    </rdf:RDF>
  </metadata>
  <path
     style="color:#000000;font-style:normal;font-variant:normal;font-weight:normal;font-stretch:normal;font-size:medium;line-height:normal;font-family:sans-serif;font-variant-ligatures:normal;font-variant-position:normal;font-variant-caps:normal;font-variant-numeric:normal;font-variant-alternates:normal;font-feature-settings:normal;text-indent:0;text-align:start;text-decoration:none;text-decoration-line:none;text-decoration-style:solid;text-decoration-color:#000000;letter-spacing:normal;word-spacing:normal;text-transform:none;writing-mode:lr-tb;direction:ltr;text-orientation:mixed;dominant-baseline:auto;baseline-shift:baseline;text-anchor:start;white-space:normal;shape-padding:0;clip-rule:nonzero;display:inline;overflow:visible;visibility:visible;opacity:1;isolation:auto;mix-blend-mode:normal;color-interpolation:sRGB;color-interpolation-filters:linearRGB;solid-color:#000000;solid-opacity:1;vector-effect:none;fill:#888888;fill-opacity:1;fill-rule:nonzero;stroke:none;stroke-width:0.87312502;stroke-linecap:round;stroke-linejoin:miter;stroke-miterlimit:4;stroke-dasharray:none;stroke-dashoffset:0;stroke-opacity:1;color-rendering:auto;image-rendering:auto;shape-rendering:auto;text-rendering:auto;enable-background:accumulate"
     d="m 7.0169041,0.02492125 c -0.76524,-0.0999 -1.61123,0.0932 -2.28875,0.71262 l -0.0134,0.0124 -4.58989995,4.95680005 a 0.43660616,0.43660616 0 1 0 0.64027,0.59325 l 4.55630995,-4.92011 c 0.48212,-0.43880005 1.03323,-0.56060005 1.58285,-0.48886005 0.55106,0.0719 1.08714,0.35924005 1.42885,0.72243005 0.79494,0.84491 1.10672,2.09627 0.0171,3.44217 l -4.74545,5.1066597 c -0.5044,0.45821 -0.95686,0.6032 -1.33015,0.58498 -0.37492,-0.0183 -0.69905,-0.19985 -0.94827,-0.51367 -0.48926995,-0.6161197 -0.45610995,-1.6145797 0.1292,-2.3104497 l 3.81113,-3.97288 0.005,-0.006 c 0.21405,-0.24082 0.45508,-0.37841 0.64957,-0.42375 0.1945,-0.0453 0.32522,-0.0148 0.4346,0.076 0.23993,0.19913 0.31612,0.7573 -0.11472,1.20045 l -10e-4,10e-4 -3.67213,3.83439 a 0.43660616,0.43660616 0 1 0 0.63045,0.60409 l 3.66851,-3.83077 c 0.72969,-0.75054 0.75176,-1.89569 0.0465,-2.48099 -0.3355,-0.27843 -0.78391,-0.34945 -1.19011,-0.25476 -0.4062,0.0947 -0.78785,0.3385 -1.10432,0.69453 l 0.0114,-0.0124 -3.83283995,3.99562 -0.009,0.0109 c -0.83901,0.99511 -0.92315,2.44072 -0.14676,3.4183997 0.38383995,0.48335 0.94829995,0.81153 1.58956995,0.84284 0.64126,0.0313 1.33094,-0.23497 1.96784,-0.81649 l 0.0129,-0.0119 4.80539,-5.1712597 0.009,-0.0114 c 1.3278999,-1.63713 0.9833899,-3.48735 -0.0574,-4.59351 -0.48907,-0.51981005 -1.18709,-0.89025005 -1.95233,-0.99013005 z"
     id="path825"
     inkscape:connector-curvature="0"
     inkscape:label="attach" />
</svg>
