<?xml version="1.0" encoding="UTF-8" standalone="no"?>
<!-- Created with Inkscape (http://www.inkscape.org/) -->

<svg
   xmlns:dc="http://purl.org/dc/elements/1.1/"
   xmlns:cc="http://creativecommons.org/ns#"
   xmlns:rdf="http://www.w3.org/1999/02/22-rdf-syntax-ns#"
   xmlns:svg="http://www.w3.org/2000/svg"
   xmlns="http://www.w3.org/2000/svg"
   xmlns:sodipodi="http://sodipodi.sourceforge.net/DTD/sodipodi-0.dtd"
   xmlns:inkscape="http://www.inkscape.org/namespaces/inkscape"
   width="22.016741mm"
   height="22.017277mm"
   viewBox="0 0 22.016741 22.017277"
   version="1.1"
   id="svg4896"
   inkscape:version="0.92.4 (5da689c313, 2019-01-14)"
   sodipodi:docname="circleplay.svg">
  <defs
     id="defs4890" />
  <sodipodi:namedview
     id="base"
     pagecolor="#ffffff"
     bordercolor="#666666"
     borderopacity="1.0"
     inkscape:pageopacity="0.0"
     inkscape:pageshadow="2"
     inkscape:zoom="11.2"
     inkscape:cx="35.164932"
     inkscape:cy="43.470152"
     inkscape:document-units="mm"
     inkscape:current-layer="svg4896"
     showgrid="false"
     inkscape:window-width="2560"
     inkscape:window-height="1361"
     inkscape:window-x="-9"
     inkscape:window-y="-9"
     inkscape:window-maximized="1" />
  <metadata
     id="metadata4893">
    <rdf:RDF>
      <cc:Work
         rdf:about="">
        <dc:format>image/svg+xml</dc:format>
        <dc:type
           rdf:resource="http://purl.org/dc/dcmitype/StillImage" />
        <dc:title></dc:title>
      </cc:Work>
    </rdf:RDF>
  </metadata>
  <path
     inkscape:connector-curvature="0"
     style="fill:#000000;fill-opacity:0.49803922;stroke:none;stroke-width:0.87312502;stroke-linecap:round;stroke-miterlimit:4;stroke-dasharray:none;stroke-opacity:1"
     d="M 11.00811,0 A 11.008411,11.008411 0 0 0 0,11.008651 11.008411,11.008411 0 0 0 11.00811,22.017276 11.008411,11.008411 0 0 0 22.01674,11.008651 11.008411,11.008411 0 0 0 11.00811,0 Z M 8.2212,6.166036 c 0.75,0.01297 3.97246,1.733602 4.36924,1.962679 0.42324,0.244369 3.92431,2.424297 3.92431,2.913009 0,0.488712 -3.50107,2.66864 -3.92431,2.912983 -0.42324,0.244369 -4.06124,2.186358 -4.48448,1.942015 -0.42324,-0.244369 -0.56069,-4.366286 -0.56069,-4.854998 0,-0.488712 0.13745,-4.610655 0.56069,-4.854998 0.0265,-0.01535 0.0652,-0.02143 0.11524,-0.02064 z"
     id="path901"
     inkscape:label="circleplay" />
</svg>
