<?xml version="1.0" encoding="UTF-8" standalone="no"?>
<svg
   xmlns:dc="http://purl.org/dc/elements/1.1/"
   xmlns:cc="http://creativecommons.org/ns#"
   xmlns:rdf="http://www.w3.org/1999/02/22-rdf-syntax-ns#"
   xmlns:svg="http://www.w3.org/2000/svg"
   xmlns="http://www.w3.org/2000/svg"
   xmlns:sodipodi="http://sodipodi.sourceforge.net/DTD/sodipodi-0.dtd"
   xmlns:inkscape="http://www.inkscape.org/namespaces/inkscape"
   viewBox="0 0 212 212"
   width="212"
   height="212"
   version="1.1"
   id="svg3729"
   sodipodi:docname="contact-icon.svg"
   inkscape:version="0.92.4 (5da689c313, 2019-01-14)">
  <metadata
     id="metadata3735">
    <rdf:RDF>
      <cc:Work
         rdf:about="">
        <dc:format>image/svg+xml</dc:format>
        <dc:type
           rdf:resource="http://purl.org/dc/dcmitype/StillImage" />
      </cc:Work>
    </rdf:RDF>
  </metadata>
  <defs
     id="defs3733" />
  <sodipodi:namedview
     pagecolor="#ffffff"
     bordercolor="#666666"
     borderopacity="1"
     objecttolerance="10"
     gridtolerance="10"
     guidetolerance="10"
     inkscape:pageopacity="0"
     inkscape:pageshadow="2"
     inkscape:window-width="2560"
     inkscape:window-height="1361"
     id="namedview3731"
     showgrid="false"
     inkscape:snap-global="true"
     inkscape:snap-bbox="true"
     inkscape:bbox-paths="true"
     inkscape:bbox-nodes="true"
     inkscape:snap-bbox-edge-midpoints="true"
     inkscape:snap-bbox-midpoints="true"
     inkscape:snap-intersection-paths="true"
     inkscape:snap-smooth-nodes="true"
     inkscape:zoom="3.8957581"
     inkscape:cx="87.479991"
     inkscape:cy="109.28161"
     inkscape:window-x="-9"
     inkscape:window-y="-9"
     inkscape:window-maximized="1"
     inkscape:current-layer="svg3729" />
  <rect
     fill="#1f232a"
     width="212"
     height="212"
     id="rect3725" />
  <path
     class="primary"
     d="m 173.561,171.615 c -0.6599,-1.00457 -1.34852,-1.98997 -2.065,-2.955 -0.83496,-1.12641 -1.70471,-2.22661 -2.608,-3.299 -1.02118,-1.2113 -2.08312,-2.38765 -3.184,-3.527 -1.8696,-1.93393 -3.84745,-3.7602 -5.924,-5.47 -3.19451,-2.62902 -6.60832,-4.97961 -10.204,-7.026 -1.94685,-1.10687 -3.94217,-2.12622 -5.98,-3.055 -0.062,-0.028 -0.118,-0.059 -0.18,-0.087 -9.792,-4.44 -22.106,-7.529 -37.416,-7.529 -15.31,0 -27.624,3.089 -37.416,7.529 -0.338,0.153 -0.653,0.318 -0.985,0.474 -2.126627,1.00159 -4.205233,2.10213 -6.229,3.298 -3.209633,1.89363 -6.268676,4.03162 -9.15,6.395 -2.076347,1.71004 -4.05418,3.53629 -5.924,5.47 -1.100905,1.13933 -2.162849,2.31567 -3.184,3.527 -0.903905,1.07215 -1.773998,2.17236 -2.609,3.299 -0.716252,0.96519 -1.404864,1.95059 -2.065,2.955 -3.093725,4.99885 -6.319268,10.79803 -8.611945,15.85799 -4.057548,9.14566 -5.946326,19.5701 -5.946326,19.5701 l 82.064271,0.0569 81.02836,-0.0147 c 0,0 -2.63147,-11.17509 -4.84579,-17.93435 -1.92784,-5.88476 -5.74657,-12.88493 -7.11957,-15.21293 -0.46379,-0.78519 -0.94592,-1.55941 -1.446,-2.322 z M 106.002,125.5 c 2.645,0 5.212,-0.253 7.68,-0.737 1.22186,-0.23954 2.43129,-0.53856 3.624,-0.896 1.75259,-0.5256 3.46392,-1.18005 5.12,-1.958 2.16594,-1.01766 4.22596,-2.24697 6.15,-3.67 3.82597,-2.8303 7.05142,-6.39261 9.489,-10.48 0.92581,-1.55127 1.73536,-3.16904 2.422,-4.84 0.70182,-1.70487 1.27542,-3.459743 1.716,-5.25 0.299,-1.208 0.542,-2.443 0.725,-3.701 0.275,-1.887 0.417,-3.827 0.417,-5.811 0,-1.984 -0.142,-3.925 -0.417,-5.811 -0.27127,-1.858367 -0.67734,-3.694544 -1.215,-5.494 -0.86824,-2.90619 -2.09359,-5.693468 -3.648,-8.298 -2.43758,-4.087394 -5.66303,-7.649702 -9.489,-10.48 -1.92418,-1.422809 -3.98418,-2.652108 -6.15,-3.67 -1.65608,-0.777948 -3.36741,-1.432398 -5.12,-1.958 -1.19245,-0.358377 -2.40193,-0.65741 -3.624,-0.896 -2.53016,-0.493334 -5.1022,-0.740156 -7.68,-0.737 -21.162,0 -37.345,16.183 -37.345,37.345 0,21.159 16.183,37.342 37.345,37.342 z"
     id="path3727"
     inkscape:connector-curvature="0"
     style="fill:#a1a1a1"
     sodipodi:nodetypes="scccccccsccccccccccccsccsscccccccsccccccccsss" />
</svg>
