<?xml version="1.0" encoding="UTF-8" standalone="no"?>
<!-- Created with Inkscape (http://www.inkscape.org/) -->

<svg
   xmlns:dc="http://purl.org/dc/elements/1.1/"
   xmlns:cc="http://creativecommons.org/ns#"
   xmlns:rdf="http://www.w3.org/1999/02/22-rdf-syntax-ns#"
   xmlns:svg="http://www.w3.org/2000/svg"
   xmlns="http://www.w3.org/2000/svg"
   xmlns:sodipodi="http://sodipodi.sourceforge.net/DTD/sodipodi-0.dtd"
   xmlns:inkscape="http://www.inkscape.org/namespaces/inkscape"
   width="9.5632401mm"
   height="9.5425596mm"
   viewBox="0 0 9.5632401 9.5425596"
   version="1.1"
   id="svg7633"
   inkscape:version="0.92.4 (5da689c313, 2019-01-14)"
   sodipodi:docname="contacticon.svg">
  <defs
     id="defs7627" />
  <sodipodi:namedview
     id="base"
     pagecolor="#ffffff"
     bordercolor="#666666"
     borderopacity="1.0"
     inkscape:pageopacity="0.0"
     inkscape:pageshadow="2"
     inkscape:zoom="15.839192"
     inkscape:cx="19.941017"
     inkscape:cy="11.616116"
     inkscape:document-units="mm"
     inkscape:current-layer="svg7633"
     showgrid="false"
     inkscape:window-width="2560"
     inkscape:window-height="1361"
     inkscape:window-x="-9"
     inkscape:window-y="-9"
     inkscape:window-maximized="1" />
  <metadata
     id="metadata7630">
    <rdf:RDF>
      <cc:Work
         rdf:about="">
        <dc:format>image/svg+xml</dc:format>
        <dc:type
           rdf:resource="http://purl.org/dc/dcmitype/StillImage" />
        <dc:title></dc:title>
      </cc:Work>
    </rdf:RDF>
  </metadata>
  <path
     inkscape:connector-curvature="0"
     style="fill:#ffffff;fill-opacity:1;stroke:none;stroke-width:0.26543668;stroke-opacity:1"
     d="M 1.23558,0 C 0.55128,0 0,0.50289 0,1.12758 v 7.28741 c 0,0.62468 0.55128,1.12757 1.23558,1.12757 h 7.09259 c 0.68431,0 1.23507,-0.50289 1.23507,-1.12757 V 1.12758 C 9.56324,0.50289 9.01248,0 8.32817,0 Z M 4.76146,1.50533 A 1.688783,1.688783 0 0 1 6.45025,3.19411 1.688783,1.688783 0 0 1 4.76146,4.8829 1.688783,1.688783 0 0 1 3.07268,3.19411 1.688783,1.688783 0 0 1 4.76146,1.50533 Z m 0.0341,4.16098 c 2.17543,-0.003 3.17872,0.71917 3.24786,1.14774 0.002,0.006 0.007,0.0124 0.007,0.0191 v 1.12809 c 0,0.0632 -0.0882,0.11369 -0.1974,0.11369 h -6.088 c -0.10915,0 -0.1974,-0.0505 -0.1974,-0.11369 v -1.1281 c 0,-0.005 0.004,-0.009 0.005,-0.0134 C 1.61832,6.33375 2.85838,5.6687 4.79568,5.66632 Z"
     id="rect4590"
     inkscape:label="contacticon" />
</svg>
