<?xml version="1.0" encoding="UTF-8" standalone="no"?>
<!-- Created with Inkscape (http://www.inkscape.org/) -->

<svg
   xmlns:dc="http://purl.org/dc/elements/1.1/"
   xmlns:cc="http://creativecommons.org/ns#"
   xmlns:rdf="http://www.w3.org/1999/02/22-rdf-syntax-ns#"
   xmlns:svg="http://www.w3.org/2000/svg"
   xmlns="http://www.w3.org/2000/svg"
   xmlns:sodipodi="http://sodipodi.sourceforge.net/DTD/sodipodi-0.dtd"
   xmlns:inkscape="http://www.inkscape.org/namespaces/inkscape"
   width="7.9152799mm"
   height="5.615675mm"
   viewBox="0 0 7.9152799 5.615675"
   version="1.1"
   id="svg15568"
   inkscape:version="0.92.4 (5da689c313, 2019-01-14)"
   sodipodi:docname="eye.svg">
  <defs
     id="defs15562" />
  <sodipodi:namedview
     id="base"
     pagecolor="#ffffff"
     bordercolor="#666666"
     borderopacity="1.0"
     inkscape:pageopacity="0.0"
     inkscape:pageshadow="2"
     inkscape:zoom="7.9195959"
     inkscape:cx="-10.095655"
     inkscape:cy="4.8323998"
     inkscape:document-units="mm"
     inkscape:current-layer="svg15568"
     showgrid="false"
     inkscape:pagecheckerboard="true"
     inkscape:window-width="2560"
     inkscape:window-height="1361"
     inkscape:window-x="-9"
     inkscape:window-y="-9"
     inkscape:window-maximized="1" />
  <metadata
     id="metadata15565">
    <rdf:RDF>
      <cc:Work
         rdf:about="">
        <dc:format>image/svg+xml</dc:format>
        <dc:type
           rdf:resource="http://purl.org/dc/dcmitype/StillImage" />
        <dc:title></dc:title>
      </cc:Work>
    </rdf:RDF>
  </metadata>
  <path
     inkscape:connector-curvature="0"
     style="fill:#ffffff;fill-opacity:0.9930244;stroke:none;stroke-width:0.26458332;stroke-opacity:1"
     d="M 3.9579,0 C 1.85213,0 1e-5,1.684126 0,2.807573 c 0,1.276059 1.86229,2.808102 3.9579,2.808102 2.21769,0 3.95739,-1.664308 3.95738,-2.808102 C 7.91527,1.785858 6.08402,0 3.9579,0 Z M 3.9476,0.884687 A 1.922771,1.922771 0 0 1 5.87048,2.807573 1.922771,1.922771 0 0 1 3.9476,4.730459 1.922771,1.922771 0 0 1 2.02472,2.807573 1.922771,1.922771 0 0 1 3.9476,0.884687 Z M 3.9579,1.708944 A 1.1088997,1.1088997 0 0 0 2.84892,2.817918 1.1088997,1.1088997 0 0 0 3.9579,3.926893 1.1088997,1.1088997 0 0 0 5.06636,2.817918 1.1088997,1.1088997 0 0 0 3.9579,1.708944 Z"
     id="path4763"
     inkscape:label="eye" />
</svg>
