<?xml version="1.0" encoding="UTF-8" standalone="no"?>
<!-- Created with Inkscape (http://www.inkscape.org/) -->

<svg
   xmlns:dc="http://purl.org/dc/elements/1.1/"
   xmlns:cc="http://creativecommons.org/ns#"
   xmlns:rdf="http://www.w3.org/1999/02/22-rdf-syntax-ns#"
   xmlns:svg="http://www.w3.org/2000/svg"
   xmlns="http://www.w3.org/2000/svg"
   xmlns:sodipodi="http://sodipodi.sourceforge.net/DTD/sodipodi-0.dtd"
   xmlns:inkscape="http://www.inkscape.org/namespaces/inkscape"
   width="12.23078mm"
   height="8.7943554mm"
   viewBox="0 0 12.23078 8.7943554"
   version="1.1"
   id="svg18988"
   inkscape:version="0.92.4 (5da689c313, 2019-01-14)"
   sodipodi:docname="forward.svg">
  <defs
     id="defs18982" />
  <sodipodi:namedview
     id="base"
     pagecolor="#ffffff"
     bordercolor="#666666"
     borderopacity="1.0"
     inkscape:pageopacity="0.0"
     inkscape:pageshadow="2"
     inkscape:zoom="15.839192"
     inkscape:cx="16.468424"
     inkscape:cy="16.795115"
     inkscape:document-units="mm"
     inkscape:current-layer="svg18988"
     showgrid="false"
     inkscape:window-width="2560"
     inkscape:window-height="1361"
     inkscape:window-x="-9"
     inkscape:window-y="-9"
     inkscape:window-maximized="1" />
  <metadata
     id="metadata18985">
    <rdf:RDF>
      <cc:Work
         rdf:about="">
        <dc:format>image/svg+xml</dc:format>
        <dc:type
           rdf:resource="http://purl.org/dc/dcmitype/StillImage" />
        <dc:title></dc:title>
      </cc:Work>
    </rdf:RDF>
  </metadata>
  <path
     inkscape:connector-curvature="0"
     style="fill:#999999;fill-opacity:1;stroke:none;stroke-width:0.26458332;stroke-opacity:1"
     d="M 7.1877,7.2353196e-5 C 7.1573,-7.276468e-4 7.1335,0.00507235 7.1174,0.01917235 6.95962,0.15426235 6.87282,1.5705924 6.82491,2.7735224 0.59671,2.8591224 0,8.3768024 0,8.3768024 c 0,0 3.1527,-2.72757 6.8306,-2.20969 0.0495,1.16989 0.13559,2.47864 0.2868,2.60811 0.25735,0.22036 2.46961,-1.53096 2.72696,-1.75131 0.25736,-0.22036 2.38642,-2.186 2.38642,-2.62672 0,-0.44071 -2.12906,-2.40687 -2.38642,-2.62723 C 9.6031,1.5633824 7.64372,0.01168235 7.18768,4.2353196e-5 Z"
     id="path17250"
     inkscape:label="forward" />
</svg>
