<?xml version="1.0" encoding="UTF-8" standalone="no"?>
<!-- Created with Inkscape (http://www.inkscape.org/) -->

<svg
   xmlns:dc="http://purl.org/dc/elements/1.1/"
   xmlns:cc="http://creativecommons.org/ns#"
   xmlns:rdf="http://www.w3.org/1999/02/22-rdf-syntax-ns#"
   xmlns:svg="http://www.w3.org/2000/svg"
   xmlns="http://www.w3.org/2000/svg"
   xmlns:sodipodi="http://sodipodi.sourceforge.net/DTD/sodipodi-0.dtd"
   xmlns:inkscape="http://www.inkscape.org/namespaces/inkscape"
   width="11.612756mm"
   height="7.3793402mm"
   viewBox="0 0 11.612756 7.3793402"
   version="1.1"
   id="svg4985"
   inkscape:version="0.92.4 (5da689c313, 2019-01-14)"
   sodipodi:docname="group.svg">
  <defs
     id="defs4979" />
  <sodipodi:namedview
     id="base"
     pagecolor="#ffffff"
     bordercolor="#666666"
     borderopacity="1.0"
     inkscape:pageopacity="0.0"
     inkscape:pageshadow="2"
     inkscape:zoom="22.4"
     inkscape:cx="32.744933"
     inkscape:cy="12.60405"
     inkscape:document-units="mm"
     inkscape:current-layer="layer1"
     showgrid="false"
     inkscape:window-width="2560"
     inkscape:window-height="1361"
     inkscape:window-x="-9"
     inkscape:window-y="-9"
     inkscape:window-maximized="1" />
  <metadata
     id="metadata4982">
    <rdf:RDF>
      <cc:Work
         rdf:about="">
        <dc:format>image/svg+xml</dc:format>
        <dc:type
           rdf:resource="http://purl.org/dc/dcmitype/StillImage" />
        <dc:title></dc:title>
      </cc:Work>
    </rdf:RDF>
  </metadata>
  <g
     inkscape:label="Layer 1"
     inkscape:groupmode="layer"
     id="layer1"
     transform="translate(-96.247204,-164.7984)">
    <path
       style="fill:#7f7f7f;fill-opacity:1;stroke:none;stroke-width:0.26458332;stroke-opacity:1"
       d="m 104.16145,164.7984 a 1.5638845,1.5638845 0 0 0 -1.56373,1.56424 1.5638845,1.5638845 0 0 0 1.56373,1.56373 1.5638845,1.5638845 0 0 0 1.56373,-1.56373 1.5638845,1.5638845 0 0 0 -1.56373,-1.56424 z m -4.227646,0.0475 a 1.5400992,1.5400992 0 0 0 -1.540474,1.54047 1.5400992,1.5400992 0 0 0 1.540474,1.53996 1.5400992,1.5400992 0 0 0 1.539956,-1.53996 1.5400992,1.5400992 0 0 0 -1.539956,-1.54047 z m 4.601786,4.14445 c -0.27796,0.003 -0.5681,0.0398 -0.86765,0.11937 1.11791,0.70762 0.98702,1.4149 0.98702,1.4149 l 0.03,1.60559 3.175,0.006 -0.0176,-1.54616 c 0,0 -1.36109,-1.62096 -3.30678,-1.5999 z m -4.548559,0.0599 c -3.185694,0 -3.686597,1.33171 -3.686597,1.33171 l -0.05323,1.77818 7.355106,0.0176 -0.0357,-1.62936 c 0,0 -0.56705,-1.4981 -3.579632,-1.4981 z"
       id="path4744"
       inkscape:connector-curvature="0"
       inkscape:label="group" />
  </g>
</svg>
