<?xml version="1.0" encoding="UTF-8" standalone="no"?>
<!-- Created with Inkscape (http://www.inkscape.org/) -->

<svg
   xmlns:dc="http://purl.org/dc/elements/1.1/"
   xmlns:cc="http://creativecommons.org/ns#"
   xmlns:rdf="http://www.w3.org/1999/02/22-rdf-syntax-ns#"
   xmlns:svg="http://www.w3.org/2000/svg"
   xmlns="http://www.w3.org/2000/svg"
   xmlns:sodipodi="http://sodipodi.sourceforge.net/DTD/sodipodi-0.dtd"
   xmlns:inkscape="http://www.inkscape.org/namespaces/inkscape"
   width="9.8424959mm"
   height="9.1467409mm"
   viewBox="0 0 9.8424959 9.1467409"
   version="1.1"
   id="svg903"
   inkscape:version="0.92.4 (5da689c313, 2019-01-14)"
   sodipodi:docname="hash.svg">
  <defs
     id="defs897" />
  <sodipodi:namedview
     id="base"
     pagecolor="#ffffff"
     bordercolor="#666666"
     borderopacity="1.0"
     inkscape:pageopacity="0.0"
     inkscape:pageshadow="2"
     inkscape:zoom="0.35"
     inkscape:cx="-149.97144"
     inkscape:cy="-268.4291"
     inkscape:document-units="mm"
     inkscape:current-layer="svg903"
     showgrid="false"
     inkscape:window-width="1263"
     inkscape:window-height="873"
     inkscape:window-x="744"
     inkscape:window-y="178"
     inkscape:window-maximized="0" />
  <metadata
     id="metadata900">
    <rdf:RDF>
      <cc:Work
         rdf:about="">
        <dc:format>image/svg+xml</dc:format>
        <dc:type
           rdf:resource="http://purl.org/dc/dcmitype/StillImage" />
        <dc:title></dc:title>
      </cc:Work>
    </rdf:RDF>
  </metadata>
  <path
     style="fill:#6794b7;fill-opacity:1;stroke:none;stroke-width:0.87312502;stroke-linecap:round;stroke-miterlimit:4;stroke-dasharray:none;stroke-opacity:1"
     d="m 3.8369848,0 c -0.238508,0 -0.464842,0.191958 -0.507555,0.430464 l -0.323912,1.808675 h -1.808675 c -0.23851095,3e-6 -0.46484195,0.191958 -0.50755595,0.430467 l -0.111202,0.618048 c -0.04271,0.238506 0.115298,0.430538 0.35389,0.430466 H 2.7406508 l -0.30642,1.711005 H 0.62503885 c -0.238509,0 -0.464326,0.191958 -0.50704,0.430467 l -0.111016,0.617016 c -0.04271,0.238509 0.114865,0.430464 0.353373,0.430464 H 2.1695478 l -0.324004,1.809192 c -0.04271,0.238508 0.114866,0.430464 0.353374,0.430464 h 0.617534 c 0.238507,0 0.465358,-0.191956 0.508072,-0.430464 l 0.324004,-1.809192 1.710397,5.29e-4 -0.323911,1.808676 c -0.04271,0.238509 0.114866,0.430464 0.353374,0.430464 h 0.617533 c 0.238508,0 0.464841,-0.191955 0.507555,-0.430464 l 0.323912,-1.808676 h 1.808675 c 0.238508,-3e-6 0.464728,-0.19132 0.507648,-0.43098 l 0.1105,-0.617016 c 0.04271,-0.238509 -0.114259,-0.43098 -0.352764,-0.430982 h -1.809192 l 0.306328,-1.710489 h 1.808675 c 0.238507,0 0.464937,-0.192471 0.507648,-0.430983 L 9.8354988,2.669619 C 9.8782088,2.43111 9.7210568,2.239668 9.4825488,2.239671 H 7.6733568 L 7.9973618,0.430477 C 8.0400718,0.191973 7.8824958,1.3e-5 7.6439878,1.3e-5 h -0.617534 c -0.238507,0 -0.464842,0.191958 -0.507555,0.430464 L 6.1948938,2.239671 4.4844968,2.239142 4.8084088,0.430466 C 4.8511188,0.191963 4.6930258,2e-6 4.4545178,2e-6 Z m 0.382645,3.71812 h 1.71049 l -0.306328,1.710489 -1.710582,5.3e-4 z"
     id="rect880"
     inkscape:connector-curvature="0"
     sodipodi:nodetypes="sscccccccsccscssssccssssccsccccscsccssssccsssccccc"
     inkscape:label="hash" />
</svg>
