<?xml version="1.0" encoding="UTF-8" standalone="no"?>
<!-- Created with Inkscape (http://www.inkscape.org/) -->

<svg
   xmlns:dc="http://purl.org/dc/elements/1.1/"
   xmlns:cc="http://creativecommons.org/ns#"
   xmlns:rdf="http://www.w3.org/1999/02/22-rdf-syntax-ns#"
   xmlns:svg="http://www.w3.org/2000/svg"
   xmlns="http://www.w3.org/2000/svg"
   xmlns:sodipodi="http://sodipodi.sourceforge.net/DTD/sodipodi-0.dtd"
   xmlns:inkscape="http://www.inkscape.org/namespaces/inkscape"
   width="10.560596mm"
   height="7.5282202mm"
   viewBox="0 0 10.560596 7.5282202"
   version="1.1"
   id="svg5008"
   inkscape:version="0.92.4 (5da689c313, 2019-01-14)"
   sodipodi:docname="keyboard.svg">
  <defs
     id="defs5002" />
  <sodipodi:namedview
     id="base"
     pagecolor="#ffffff"
     bordercolor="#666666"
     borderopacity="1.0"
     inkscape:pageopacity="0.0"
     inkscape:pageshadow="2"
     inkscape:zoom="15.839192"
     inkscape:cx="25.950437"
     inkscape:cy="14.84672"
     inkscape:document-units="mm"
     inkscape:current-layer="layer1"
     showgrid="false"
     inkscape:window-width="2560"
     inkscape:window-height="1361"
     inkscape:window-x="-9"
     inkscape:window-y="-9"
     inkscape:window-maximized="1" />
  <metadata
     id="metadata5005">
    <rdf:RDF>
      <cc:Work
         rdf:about="">
        <dc:format>image/svg+xml</dc:format>
        <dc:type
           rdf:resource="http://purl.org/dc/dcmitype/StillImage" />
        <dc:title></dc:title>
      </cc:Work>
    </rdf:RDF>
  </metadata>
  <g
     inkscape:label="Layer 1"
     inkscape:groupmode="layer"
     id="layer1"
     transform="translate(-65.023273,-121.6347)">
    <path
       style="fill:#7f7f7f;fill-opacity:1;stroke:none;stroke-width:0.26458332;stroke-opacity:1"
       d="m 65.918309,121.6347 c -0.495771,0 -0.895036,0.39926 -0.895036,0.89503 v 5.73816 c 0,0.49577 0.399265,0.89503 0.895036,0.89503 h 8.771041 c 0.495771,0 0.894519,-0.39926 0.894519,-0.89503 v -5.73816 c 0,-0.49577 -0.398748,-0.89503 -0.894519,-0.89503 z m 2.356962,1.53685 h 0.884184 c 0.109092,0 0.196887,0.0878 0.196887,0.19689 v 0.8971 c 0,0.1091 -0.0878,0.19689 -0.196887,0.19689 h -0.884184 c -0.109091,0 -0.196887,-0.0878 -0.196887,-0.19689 v -0.8971 c 0,-0.10909 0.0878,-0.19689 0.196887,-0.19689 z m -1.593701,0.004 h 0.884184 c 0.109091,0 0.196887,0.0878 0.196887,0.19689 v 0.88884 c 0,0.10909 -0.0878,0.19688 -0.196887,0.19688 H 66.68157 c -0.109091,0 -0.196887,-0.0878 -0.196887,-0.19688 v -0.88884 c 0,-0.10909 0.0878,-0.19689 0.196887,-0.19689 z m 3.174483,0 h 0.888318 c 0.109092,0 0.197404,0.0878 0.197404,0.19689 v 0.88057 c 0,0.10909 -0.08831,0.19689 -0.197404,0.19689 h -0.888318 c -0.109091,0 -0.196887,-0.0878 -0.196887,-0.19689 v -0.88057 c 0,-0.10909 0.0878,-0.19689 0.196887,-0.19689 z m 1.580782,0 h 0.905371 c 0.109092,0 0.196888,0.0878 0.196888,0.19689 v 0.88884 c 0,0.10909 -0.0878,0.19688 -0.196888,0.19688 h -0.905371 c -0.109091,0 -0.196887,-0.0878 -0.196887,-0.19688 v -0.88884 c 0,-0.10909 0.0878,-0.19689 0.196887,-0.19689 z m 1.585433,0.005 h 0.897103 c 0.109092,0 0.196888,0.0878 0.196887,0.19689 v 0.87592 c 0,0.10909 -0.0878,0.19689 -0.196887,0.19689 h -0.897103 c -0.109091,0 -0.196887,-0.0878 -0.196887,-0.19689 v -0.87592 c 0,-0.10909 0.0878,-0.19689 0.196887,-0.19689 z m -6.348966,1.57252 h 0.884184 c 0.109091,0 0.196887,0.0878 0.196887,0.19689 v 0.9095 c 0,0.10909 -0.0878,0.19689 -0.196887,0.19689 h -0.884184 c -0.109092,0 -0.197404,-0.0878 -0.197404,-0.19689 v -0.90951 c 0,-0.10909 0.08831,-0.19689 0.197404,-0.19689 z m 3.182751,0.008 h 0.888318 c 0.109092,0 0.197404,0.0878 0.197404,0.19689 v 0.89296 c 0,0.1091 -0.08831,0.19689 -0.197404,0.19689 h -0.888318 c -0.109091,0 -0.196887,-0.0878 -0.196887,-0.19689 V 124.958 c 0,-0.1091 0.0878,-0.19689 0.196887,-0.19689 z m 3.149162,0 h 0.922425 c 0.109091,0 0.196887,0.0878 0.196887,0.19689 v 0.8971 c 0,0.10909 -0.0878,0.19689 -0.196887,0.19689 h -0.922425 c -0.109091,0 -0.196887,-0.0878 -0.196887,-0.19689 V 124.958 c 0,-0.1091 0.0878,-0.19689 0.196887,-0.19689 z m -1.572514,0.004 h 0.901237 c 0.109092,0 0.196888,0.0878 0.196888,0.19689 v 0.88883 c 0,0.10909 -0.0878,0.19689 -0.196888,0.19689 h -0.901237 c -0.109091,0 -0.196887,-0.0878 -0.196887,-0.19689 v -0.88885 c 0,-0.10909 0.0878,-0.19688 0.196887,-0.19688 z m -3.174483,0.008 h 0.91829 c 0.109092,0 0.196887,0.0878 0.196887,0.19689 v 0.86764 c 0,0.10909 -0.0878,0.19689 -0.196887,0.19689 h -0.91829 c -0.109091,0 -0.196887,-0.0878 -0.196887,-0.19689 v -0.86766 c 0,-0.1091 0.0878,-0.19689 0.196887,-0.19689 z m 0.06615,2.1239 h 4.000273 c 0.109091,0 0.196887,0.0878 0.196887,0.19689 v 0.84904 c 0,0.10909 -0.0878,0.19689 -0.196887,0.19689 h -4.000273 c -0.109092,0 -0.196887,-0.0878 -0.196887,-0.19689 v -0.84906 c 0,-0.10909 0.0878,-0.19689 0.196887,-0.19689 z"
       id="rect4753"
       inkscape:connector-curvature="0"
       inkscape:label="keyboard" />
  </g>
</svg>
