<?xml version="1.0" encoding="UTF-8" standalone="no"?>
<!-- Created with Inkscape (http://www.inkscape.org/) -->

<svg
   xmlns:dc="http://purl.org/dc/elements/1.1/"
   xmlns:cc="http://creativecommons.org/ns#"
   xmlns:rdf="http://www.w3.org/1999/02/22-rdf-syntax-ns#"
   xmlns:svg="http://www.w3.org/2000/svg"
   xmlns="http://www.w3.org/2000/svg"
   xmlns:sodipodi="http://sodipodi.sourceforge.net/DTD/sodipodi-0.dtd"
   xmlns:inkscape="http://www.inkscape.org/namespaces/inkscape"
   width="9.5244827mm"
   height="7.45226mm"
   viewBox="0 0 9.5244827 7.45226"
   version="1.1"
   id="svg6499"
   inkscape:version="0.92.4 (5da689c313, 2019-01-14)"
   sodipodi:docname="menuitems.svg">
  <defs
     id="defs6493" />
  <sodipodi:namedview
     id="base"
     pagecolor="#ffffff"
     bordercolor="#666666"
     borderopacity="1.0"
     inkscape:pageopacity="0.0"
     inkscape:pageshadow="2"
     inkscape:zoom="15.839192"
     inkscape:cx="13.675021"
     inkscape:cy="16.265723"
     inkscape:document-units="mm"
     inkscape:current-layer="svg6499"
     showgrid="false"
     inkscape:window-width="2560"
     inkscape:window-height="1361"
     inkscape:window-x="-9"
     inkscape:window-y="-9"
     inkscape:window-maximized="1" />
  <metadata
     id="metadata6496">
    <rdf:RDF>
      <cc:Work
         rdf:about="">
        <dc:format>image/svg+xml</dc:format>
        <dc:type
           rdf:resource="http://purl.org/dc/dcmitype/StillImage" />
        <dc:title></dc:title>
      </cc:Work>
    </rdf:RDF>
  </metadata>
  <path
     inkscape:connector-curvature="0"
     style="fill:#ffffff;fill-opacity:1;stroke:none;stroke-width:0.26458332;stroke-opacity:1"
     d="M 0.177767,0 C 0.079407,0 0,0.0789 0,0.17725 v 0.75293 c 0,0.0984 0.0794,0.17725 0.177767,0.17725 h 9.168949 c 0.09836,0 0.177767,-0.0789 0.177767,-0.17725 V 0.17725 C 9.524483,0.07885 9.445083,0 9.346716,0 Z m 0,3.17965 C 0.079407,3.17965 0,3.25855 0,3.3569 v 0.75293 c 0,0.0984 0.0794,0.17725 0.177767,0.17725 h 9.168949 c 0.09836,0 0.177767,-0.0789 0.177767,-0.17725 V 3.3569 c 0,-0.0984 -0.0794,-0.17725 -0.177767,-0.17725 z m 0,3.16518 C 0.079407,6.34483 0,6.42373 0,6.52208 v 0.75293 c 0,0.0984 0.0794,0.17725 0.177767,0.17725 h 9.168949 c 0.09836,0 0.177767,-0.0789 0.177767,-0.17725 V 6.52208 c 0,-0.0984 -0.0794,-0.17725 -0.177767,-0.17725 z"
     id="rect4553"
     inkscape:label="menuitems" />
</svg>
