<?xml version="1.0" encoding="UTF-8" standalone="no"?>
<!-- Created with Inkscape (http://www.inkscape.org/) -->

<svg
   xmlns:dc="http://purl.org/dc/elements/1.1/"
   xmlns:cc="http://creativecommons.org/ns#"
   xmlns:rdf="http://www.w3.org/1999/02/22-rdf-syntax-ns#"
   xmlns:svg="http://www.w3.org/2000/svg"
   xmlns="http://www.w3.org/2000/svg"
   xmlns:sodipodi="http://sodipodi.sourceforge.net/DTD/sodipodi-0.dtd"
   xmlns:inkscape="http://www.inkscape.org/namespaces/inkscape"
   width="9.4939899mm"
   height="6.37429mm"
   viewBox="0 0 9.4939899 6.37429"
   version="1.1"
   id="svg4939"
   inkscape:version="0.92.4 (5da689c313, 2019-01-14)"
   sodipodi:docname="menu.svg">
  <defs
     id="defs4933" />
  <sodipodi:namedview
     id="base"
     pagecolor="#ffffff"
     bordercolor="#666666"
     borderopacity="1.0"
     inkscape:pageopacity="0.0"
     inkscape:pageshadow="2"
     inkscape:zoom="22.4"
     inkscape:cx="25.740108"
     inkscape:cy="13.335294"
     inkscape:document-units="mm"
     inkscape:current-layer="layer1"
     showgrid="false"
     inkscape:window-width="2560"
     inkscape:window-height="1361"
     inkscape:window-x="-9"
     inkscape:window-y="-9"
     inkscape:window-maximized="1" />
  <metadata
     id="metadata4936">
    <rdf:RDF>
      <cc:Work
         rdf:about="">
        <dc:format>image/svg+xml</dc:format>
        <dc:type
           rdf:resource="http://purl.org/dc/dcmitype/StillImage" />
        <dc:title></dc:title>
      </cc:Work>
    </rdf:RDF>
  </metadata>
  <g
     inkscape:label="Layer 1"
     inkscape:groupmode="layer"
     id="layer1"
     transform="translate(-142.66371,-280.20571)">
    <path
       style="fill:#7f7f7f;fill-opacity:1;stroke:none;stroke-width:0.26458332;stroke-opacity:1"
       d="m 142.96189,280.20571 c -0.14658,0 -0.26458,0.11801 -0.26458,0.26459 v 0.52193 c 0,0.14658 0.118,0.26458 0.26458,0.26458 h 8.90592 c 0.14657,0 0.26458,-0.118 0.26458,-0.26458 v -0.52193 c 0,-0.14658 -0.11801,-0.26459 -0.26458,-0.26459 z m -0.0171,2.65721 c -0.14658,0 -0.26459,0.118 -0.26459,0.26458 v 0.51366 c 0,0.14658 0.11801,0.26459 0.26459,0.26459 h 8.92297 c 0.14658,0 0.26458,-0.11801 0.26458,-0.26459 v -0.51366 c 0,-0.14658 -0.118,-0.26458 -0.26458,-0.26458 z m -0.0165,2.62412 c -0.14658,0 -0.26458,0.11801 -0.26458,0.26459 v 0.56379 c 0,0.14658 0.118,0.26458 0.26458,0.26458 h 8.96483 c 0.14658,0 0.26458,-0.118 0.26458,-0.26458 v -0.56379 c 0,-0.14658 -0.118,-0.26459 -0.26458,-0.26459 z"
       id="rect4730"
       inkscape:connector-curvature="0"
       inkscape:label="menu" />
  </g>
</svg>
