<?xml version="1.0" encoding="UTF-8" standalone="no"?>
<!-- Created with Inkscape (http://www.inkscape.org/) -->

<svg
   xmlns:dc="http://purl.org/dc/elements/1.1/"
   xmlns:cc="http://creativecommons.org/ns#"
   xmlns:rdf="http://www.w3.org/1999/02/22-rdf-syntax-ns#"
   xmlns:svg="http://www.w3.org/2000/svg"
   xmlns="http://www.w3.org/2000/svg"
   xmlns:sodipodi="http://sodipodi.sourceforge.net/DTD/sodipodi-0.dtd"
   xmlns:inkscape="http://www.inkscape.org/namespaces/inkscape"
   width="7.7845402mm"
   height="10.13323mm"
   viewBox="0 0 7.7845402 10.13323"
   version="1.1"
   id="svg10472"
   inkscape:version="0.92.4 (5da689c313, 2019-01-14)"
   sodipodi:docname="mic.svg">
  <defs
     id="defs10466" />
  <sodipodi:namedview
     id="base"
     pagecolor="#ffffff"
     bordercolor="#666666"
     borderopacity="1.0"
     inkscape:pageopacity="0.0"
     inkscape:pageshadow="2"
     inkscape:zoom="11.2"
     inkscape:cx="1.7002927"
     inkscape:cy="24.689386"
     inkscape:document-units="mm"
     inkscape:current-layer="svg10472"
     showgrid="false"
     inkscape:window-width="2560"
     inkscape:window-height="1361"
     inkscape:window-x="-9"
     inkscape:window-y="-9"
     inkscape:window-maximized="1" />
  <metadata
     id="metadata10469">
    <rdf:RDF>
      <cc:Work
         rdf:about="">
        <dc:format>image/svg+xml</dc:format>
        <dc:type
           rdf:resource="http://purl.org/dc/dcmitype/StillImage" />
        <dc:title></dc:title>
      </cc:Work>
    </rdf:RDF>
  </metadata>
  <path
     inkscape:connector-curvature="0"
     style="fill:#ffffff;fill-opacity:1;stroke:none;stroke-width:0.26458332;stroke-opacity:1"
     d="M 3.89124,0 C 3.03302,-3.9998275e-5 2.33729,0.69569 2.33733,1.55391 v 3.33778 c -4e-5,0.85822 0.69569,1.55396 1.55391,1.55391 0.85822,5e-5 1.55395,-0.69569 1.55391,-1.55391 V 1.55391 C 5.44519,0.69569 4.74946,-3.9998275e-5 3.89124,0 Z M 0,4.81986 A 3.8989714,3.8989714 0 0 0 3.30833,8.51214 V 10.018 c 0,0.0638 0.0515,0.11523 0.11524,0.11523 h 0.89917 c 0.0638,0 0.11524,-0.0515 0.11524,-0.11523 V 8.51679 A 3.8989714,3.8989714 0 0 0 7.78454,4.81986 H 6.7753 A 2.8918569,2.8918569 0 0 1 3.89124,7.55303 2.8918569,2.8918569 0 0 1 1.00511,4.81986 Z"
     id="path4657"
     inkscape:label="mic" />
</svg>
