<?xml version="1.0" encoding="UTF-8" standalone="no"?>
<!-- Created with Inkscape (http://www.inkscape.org/) -->

<svg
   xmlns:dc="http://purl.org/dc/elements/1.1/"
   xmlns:cc="http://creativecommons.org/ns#"
   xmlns:rdf="http://www.w3.org/1999/02/22-rdf-syntax-ns#"
   xmlns:svg="http://www.w3.org/2000/svg"
   xmlns="http://www.w3.org/2000/svg"
   xmlns:sodipodi="http://sodipodi.sourceforge.net/DTD/sodipodi-0.dtd"
   xmlns:inkscape="http://www.inkscape.org/namespaces/inkscape"
   width="6.3582702mm"
   height="7.3861098mm"
   viewBox="0 0 6.3582702 7.3861098"
   version="1.1"
   id="svg12171"
   inkscape:version="0.92.4 (5da689c313, 2019-01-14)"
   sodipodi:docname="pause.svg">
  <defs
     id="defs12165" />
  <sodipodi:namedview
     id="base"
     pagecolor="#ffffff"
     bordercolor="#666666"
     borderopacity="1.0"
     inkscape:pageopacity="0.0"
     inkscape:pageshadow="2"
     inkscape:zoom="7.9195959"
     inkscape:cx="-12.656453"
     inkscape:cy="39.763882"
     inkscape:document-units="mm"
     inkscape:current-layer="svg12171"
     showgrid="false"
     inkscape:window-width="2560"
     inkscape:window-height="1361"
     inkscape:window-x="-9"
     inkscape:window-y="-9"
     inkscape:window-maximized="1" />
  <metadata
     id="metadata12168">
    <rdf:RDF>
      <cc:Work
         rdf:about="">
        <dc:format>image/svg+xml</dc:format>
        <dc:type
           rdf:resource="http://purl.org/dc/dcmitype/StillImage" />
        <dc:title></dc:title>
      </cc:Work>
    </rdf:RDF>
  </metadata>
  <path
     inkscape:connector-curvature="0"
     style="fill:#ffffff;fill-opacity:0.9930244;stroke:none;stroke-width:0.26458332;stroke-opacity:1"
     d="M 0.18345,0 C 0.082,0 0,0.082 0,0.18343 v 7.01974 c 0,0.10144 0.082,0.18294 0.18345,0.18294 h 1.71928 c 0.10145,0 0.18293,-0.0815 0.18293,-0.18294 V 0.18343 C 2.08566,0.08199 2.00416,0 1.90273,0 Z M 4.45606,0 C 4.35461,0 4.27313,0.082 4.27313,0.18343 v 7.01974 c 0,0.10144 0.0815,0.18294 0.18293,0.18294 h 1.71928 c 0.10145,0 0.18293,-0.0815 0.18293,-0.18294 V 0.18343 C 6.35827,0.08199 6.27677,0 6.17534,0 Z"
     id="rect4697"
     inkscape:label="pause" />
</svg>
