<?xml version="1.0" encoding="UTF-8" standalone="no"?>
<!-- Created with Inkscape (http://www.inkscape.org/) -->

<svg
   xmlns:dc="http://purl.org/dc/elements/1.1/"
   xmlns:cc="http://creativecommons.org/ns#"
   xmlns:rdf="http://www.w3.org/1999/02/22-rdf-syntax-ns#"
   xmlns:svg="http://www.w3.org/2000/svg"
   xmlns="http://www.w3.org/2000/svg"
   xmlns:sodipodi="http://sodipodi.sourceforge.net/DTD/sodipodi-0.dtd"
   xmlns:inkscape="http://www.inkscape.org/namespaces/inkscape"
   width="7.4291148mm"
   height="7.3789124mm"
   viewBox="0 0 7.4291148 7.3789124"
   version="1.1"
   id="svg16134"
   inkscape:version="0.92.4 (5da689c313, 2019-01-14)"
   sodipodi:docname="pin.svg">
  <defs
     id="defs16128" />
  <sodipodi:namedview
     id="base"
     pagecolor="#ffffff"
     bordercolor="#666666"
     borderopacity="1.0"
     inkscape:pageopacity="0.0"
     inkscape:pageshadow="2"
     inkscape:zoom="1.979899"
     inkscape:cx="-50.696263"
     inkscape:cy="67.248595"
     inkscape:document-units="mm"
     inkscape:current-layer="svg16134"
     showgrid="false"
     inkscape:window-width="2560"
     inkscape:window-height="1361"
     inkscape:window-x="-9"
     inkscape:window-y="-9"
     inkscape:window-maximized="1" />
  <metadata
     id="metadata16131">
    <rdf:RDF>
      <cc:Work
         rdf:about="">
        <dc:format>image/svg+xml</dc:format>
        <dc:type
           rdf:resource="http://purl.org/dc/dcmitype/StillImage" />
        <dc:title></dc:title>
      </cc:Work>
    </rdf:RDF>
  </metadata>
  <path
     inkscape:connector-curvature="0"
     style="fill:#ffffff;fill-opacity:0.9930244;stroke:none;stroke-width:0.26458332;stroke-opacity:1"
     d="m 5.3170425,1.5e-4 c -0.10165,0 -0.20322,0.0389 -0.28112,0.11678 l -2.08101,2.081 a 2.6616594,2.6616594 0 0 0 -0.3514,-0.0265 2.6616594,2.6616594 0 0 0 -1.89549,0.79375 l 1.48673,1.48673 -2.07791,2.0779 c -0.15579,0.15581 -0.15579,0.40645 0,0.56224 l 0.17002,0.17002 c 0.15579,0.15579 0.40645,0.15579 0.56224,0 l 2.07791,-2.0779 1.54306,1.54305 a 2.6616594,2.6616594 0 0 0 0.79478,-1.89394 2.6616594,2.6616594 0 0 0 -0.0279,-0.36484 l 2.07532,-2.07531 c 0.15579,-0.15579 0.15579,-0.40645 0,-0.56224 l -1.71411,-1.7141 C 5.5202625,0.03889 5.4187025,0 5.3170425,0 Z"
     id="path4772"
     inkscape:label="pin" />
</svg>
