<?xml version="1.0" encoding="UTF-8" standalone="no"?>
<!-- Created with Inkscape (http://www.inkscape.org/) -->

<svg
   xmlns:dc="http://purl.org/dc/elements/1.1/"
   xmlns:cc="http://creativecommons.org/ns#"
   xmlns:rdf="http://www.w3.org/1999/02/22-rdf-syntax-ns#"
   xmlns:svg="http://www.w3.org/2000/svg"
   xmlns="http://www.w3.org/2000/svg"
   xmlns:sodipodi="http://sodipodi.sourceforge.net/DTD/sodipodi-0.dtd"
   xmlns:inkscape="http://www.inkscape.org/namespaces/inkscape"
   width="10.763167mm"
   height="10.67171mm"
   viewBox="0 0 10.763167 10.67171"
   version="1.1"
   id="svg15002"
   inkscape:version="0.92.4 (5da689c313, 2019-01-14)"
   sodipodi:docname="slash.svg">
  <defs
     id="defs14996" />
  <sodipodi:namedview
     id="base"
     pagecolor="#ffffff"
     bordercolor="#666666"
     borderopacity="1.0"
     inkscape:pageopacity="0.0"
     inkscape:pageshadow="2"
     inkscape:zoom="5.6"
     inkscape:cx="5.1427355"
     inkscape:cy="42.66761"
     inkscape:document-units="mm"
     inkscape:current-layer="svg15002"
     showgrid="false"
     inkscape:pagecheckerboard="true"
     inkscape:window-width="2560"
     inkscape:window-height="1361"
     inkscape:window-x="-9"
     inkscape:window-y="-9"
     inkscape:window-maximized="1" />
  <metadata
     id="metadata14999">
    <rdf:RDF>
      <cc:Work
         rdf:about="">
        <dc:format>image/svg+xml</dc:format>
        <dc:type
           rdf:resource="http://purl.org/dc/dcmitype/StillImage" />
        <dc:title></dc:title>
      </cc:Work>
    </rdf:RDF>
  </metadata>
  <path
     inkscape:connector-curvature="0"
     style="fill:#ffffff;fill-opacity:0.9930244;stroke:none;stroke-width:0.26458332;stroke-opacity:1"
     d="M 2.024167,0 C 0.902582,0 0,0.90258 0,2.02417 v 6.62284 c 0,1.12162 0.902582,2.0247 2.024167,2.0247 h 6.71483 c 1.12159,0 2.02417,-0.90311 2.02417,-2.0247 V 2.02417 C 10.763167,0.90258 9.860587,0 8.738997,0 Z m 0.21394,1.04749 h 6.18515 c 0.64815,0 1.16996,0.52181 1.16996,1.16996 v 6.22649 c 0,0.64815 -0.52181,1.16994 -1.16996,1.16994 h -6.18515 c -0.648152,0 -1.169955,-0.52179 -1.169955,-1.16994 V 2.21745 c 0,-0.64815 0.521803,-1.16996 1.169955,-1.16996 z m 3.98632,1.6242 -2.97811,5.25134 h 1.24023 l 2.97863,-5.25134 z"
     id="path4746"
     inkscape:label="slash" />
</svg>
