<?xml version="1.0" encoding="UTF-8" standalone="no"?>
<!-- Created with Inkscape (http://www.inkscape.org/) -->

<svg
   xmlns:dc="http://purl.org/dc/elements/1.1/"
   xmlns:cc="http://creativecommons.org/ns#"
   xmlns:rdf="http://www.w3.org/1999/02/22-rdf-syntax-ns#"
   xmlns:svg="http://www.w3.org/2000/svg"
   xmlns="http://www.w3.org/2000/svg"
   xmlns:sodipodi="http://sodipodi.sourceforge.net/DTD/sodipodi-0.dtd"
   xmlns:inkscape="http://www.inkscape.org/namespaces/inkscape"
   width="11.21998mm"
   height="11.21998mm"
   viewBox="0 0 11.21998 11.21998"
   version="1.1"
   id="svg6322"
   inkscape:version="0.92.4 (5da689c313, 2019-01-14)"
   sodipodi:docname="time.svg">
  <defs
     id="defs6316" />
  <sodipodi:namedview
     id="base"
     pagecolor="#ffffff"
     bordercolor="#666666"
     borderopacity="1.0"
     inkscape:pageopacity="0.0"
     inkscape:pageshadow="2"
     inkscape:zoom="15.839192"
     inkscape:cx="16.58952"
     inkscape:cy="18.189455"
     inkscape:document-units="mm"
     inkscape:current-layer="svg6322"
     showgrid="false"
     inkscape:window-width="2560"
     inkscape:window-height="1361"
     inkscape:window-x="-9"
     inkscape:window-y="-9"
     inkscape:window-maximized="1" />
  <metadata
     id="metadata6319">
    <rdf:RDF>
      <cc:Work
         rdf:about="">
        <dc:format>image/svg+xml</dc:format>
        <dc:type
           rdf:resource="http://purl.org/dc/dcmitype/StillImage" />
        <dc:title></dc:title>
      </cc:Work>
    </rdf:RDF>
  </metadata>
  <path
     inkscape:connector-curvature="0"
     style="fill:#6794b7;fill-opacity:1;stroke:none;stroke-width:0.87312502;stroke-linecap:round;stroke-miterlimit:4;stroke-dasharray:none;stroke-opacity:1"
     d="M 5.60999,0 A 5.6100173,5.6100173 0 0 0 0,5.60999 5.6100173,5.6100173 0 0 0 5.60999,11.21998 5.6100173,5.6100173 0 0 0 11.21998,5.60999 5.6100173,5.6100173 0 0 0 5.60999,0 Z m 0,1.10174 A 4.4793162,4.4793162 0 0 1 10.0893,5.58105 4.4793162,4.4793162 0 0 1 5.60999,10.06036 4.4793162,4.4793162 0 0 1 1.13068,5.58105 4.4793162,4.4793162 0 0 1 5.60999,1.10174 Z M 5.41052,2.91351 c -0.18665,0 -0.33641,0.15028 -0.33641,0.33693 v 2.3921 0.42789 c 0,0.18664 0.14976,0.33693 0.33641,0.33693 H 8.2305 c 0.18665,0 0.33693,-0.15029 0.33693,-0.33693 V 5.64254 C 8.56743,5.4559 8.41715,5.30561 8.2305,5.30561 H 6.17533 V 3.25044 c 0,-0.18665 -0.15028,-0.33693 -0.33693,-0.33693 z"
     id="path825"
     inkscape:label="time" />
</svg>
