<?xml version="1.0" encoding="UTF-8" standalone="no"?>
<!-- Created with Inkscape (http://www.inkscape.org/) -->

<svg
   xmlns:dc="http://purl.org/dc/elements/1.1/"
   xmlns:cc="http://creativecommons.org/ns#"
   xmlns:rdf="http://www.w3.org/1999/02/22-rdf-syntax-ns#"
   xmlns:svg="http://www.w3.org/2000/svg"
   xmlns="http://www.w3.org/2000/svg"
   xmlns:sodipodi="http://sodipodi.sourceforge.net/DTD/sodipodi-0.dtd"
   xmlns:inkscape="http://www.inkscape.org/namespaces/inkscape"
   width="14.33086mm"
   height="11.474926mm"
   viewBox="0 0 14.33086 11.474926"
   version="1.1"
   id="svg5077"
   inkscape:version="0.92.4 (5da689c313, 2019-01-14)"
   sodipodi:docname="twitter.svg">
  <defs
     id="defs5071" />
  <sodipodi:namedview
     id="base"
     pagecolor="#ffffff"
     bordercolor="#666666"
     borderopacity="1.0"
     inkscape:pageopacity="0.0"
     inkscape:pageshadow="2"
     inkscape:zoom="11.2"
     inkscape:cx="33.275189"
     inkscape:cy="25.560278"
     inkscape:document-units="mm"
     inkscape:current-layer="layer1"
     showgrid="false"
     inkscape:window-width="2560"
     inkscape:window-height="1361"
     inkscape:window-x="-9"
     inkscape:window-y="-9"
     inkscape:window-maximized="1" />
  <metadata
     id="metadata5074">
    <rdf:RDF>
      <cc:Work
         rdf:about="">
        <dc:format>image/svg+xml</dc:format>
        <dc:type
           rdf:resource="http://purl.org/dc/dcmitype/StillImage" />
        <dc:title></dc:title>
      </cc:Work>
    </rdf:RDF>
  </metadata>
  <g
     inkscape:label="Layer 1"
     inkscape:groupmode="layer"
     id="layer1"
     transform="translate(-181.06673,-228.51847)">
    <path
       style="fill:#7f7f7f;fill-opacity:1;stroke:none;stroke-width:0.26458332;stroke-opacity:1"
       d="m 191.03301,228.51851 c -1.54364,-2.2e-4 -2.79514,1.22444 -2.79518,2.73523 0.001,0.23705 0.0219,0.65134 0.0853,0.88016 -3.99071,-0.14171 -5.42735,-1.93572 -6.10298,-3.15186 -0.63588,0.98914 -0.54935,2.66278 0.9095,3.90312 -0.41299,0.0109 -0.9796,-0.0674 -1.46813,-0.48989 0.34542,1.68134 1.29067,2.61901 2.49546,3.05821 -0.5362,0.37049 -0.90713,0.0187 -1.42524,0.15297 0.96027,1.39115 1.82944,1.92087 2.83084,1.96732 -1.7961,1.61764 -4.49585,1.2795 -4.49585,1.2795 7.69677,3.71838 13.0349,-2.46921 12.67571,-6.94324 0.0489,-0.19238 0.0763,-0.38939 0.0816,-0.58756 l 1.57355,-1.40095 -1.70481,0.50385 c -0.004,-0.0119 -0.008,-0.0238 -0.0119,-0.0357 l 1.44281,-1.65726 -1.85363,0.88728 c -0.52655,-0.69179 -1.35568,-1.09993 -2.23707,-1.10122 z"
       id="path4814"
       inkscape:connector-curvature="0"
       sodipodi:nodetypes="cccccccccccccccccc"
       inkscape:label="twitter" />
  </g>
</svg>
