<?xml version="1.0" encoding="UTF-8" standalone="no"?>
<!-- Created with Inkscape (http://www.inkscape.org/) -->

<svg
   xmlns:dc="http://purl.org/dc/elements/1.1/"
   xmlns:cc="http://creativecommons.org/ns#"
   xmlns:rdf="http://www.w3.org/1999/02/22-rdf-syntax-ns#"
   xmlns:svg="http://www.w3.org/2000/svg"
   xmlns="http://www.w3.org/2000/svg"
   xmlns:sodipodi="http://sodipodi.sourceforge.net/DTD/sodipodi-0.dtd"
   xmlns:inkscape="http://www.inkscape.org/namespaces/inkscape"
   width="8.7771997mm"
   height="6.7758651mm"
   viewBox="0 0 8.7771997 6.7758651"
   version="1.1"
   id="svg2631"
   inkscape:version="0.92.4 (5da689c313, 2019-01-14)"
   sodipodi:docname="v.svg">
  <defs
     id="defs2625" />
  <sodipodi:namedview
     id="base"
     pagecolor="#ffffff"
     bordercolor="#666666"
     borderopacity="1.0"
     inkscape:pageopacity="0.0"
     inkscape:pageshadow="2"
     inkscape:zoom="5.6"
     inkscape:cx="-1.5116867"
     inkscape:cy="-2.0883865"
     inkscape:document-units="mm"
     inkscape:current-layer="svg2631"
     showgrid="false"
     inkscape:window-width="2560"
     inkscape:window-height="1361"
     inkscape:window-x="-9"
     inkscape:window-y="-9"
     inkscape:window-maximized="1" />
  <metadata
     id="metadata2628">
    <rdf:RDF>
      <cc:Work
         rdf:about="">
        <dc:format>image/svg+xml</dc:format>
        <dc:type
           rdf:resource="http://purl.org/dc/dcmitype/StillImage" />
        <dc:title></dc:title>
      </cc:Work>
    </rdf:RDF>
  </metadata>
  <path
     style="display:inline;fill:#999999;fill-opacity:1;stroke:none;stroke-width:0.87312502;stroke-linecap:round;stroke-miterlimit:4;stroke-dasharray:none;stroke-opacity:1"
     d="m 8.015005,0 c -0.0652,0 -0.13042,0.025 -0.18035,0.0749 l -5.07101,5.07101 -1.82159,-1.8216 c -0.0999,-0.0999 -0.26033,-0.0999 -0.36019,0 l -0.50694,0.50695 c -0.0999,0.0999 -0.0999,0.26084 0,0.3607 0.83628,0.83614 1.67247,1.67237 2.50837,2.50889 0.0749,0.0749 0.18444,0.0938 0.27647,0.0563 0.0307,-0.0125 0.0593,-0.0314 0.0842,-0.0563 1.91944,-1.91943 3.83887,-3.83887 5.75831,-5.75831 0.0999,-0.0998 0.0999,-0.26084 0,-0.3607 L 8.195325,0.0749 C 8.145425,0.025 8.080135,0 8.014975,0 Z"
     id="rect875"
     inkscape:connector-curvature="0"
     sodipodi:nodetypes="sccccccccccccs"
     inkscape:label="v" />
</svg>
