<?xml version="1.0" encoding="UTF-8" standalone="no"?>
<!-- Created with Inkscape (http://www.inkscape.org/) -->

<svg
   xmlns:dc="http://purl.org/dc/elements/1.1/"
   xmlns:cc="http://creativecommons.org/ns#"
   xmlns:rdf="http://www.w3.org/1999/02/22-rdf-syntax-ns#"
   xmlns:svg="http://www.w3.org/2000/svg"
   xmlns="http://www.w3.org/2000/svg"
   xmlns:sodipodi="http://sodipodi.sourceforge.net/DTD/sodipodi-0.dtd"
   xmlns:inkscape="http://www.inkscape.org/namespaces/inkscape"
   width="8.4677mm"
   height="8.4671803mm"
   viewBox="0 0 8.4677 8.4671803"
   version="1.1"
   id="svg5123"
   inkscape:version="0.92.4 (5da689c313, 2019-01-14)"
   sodipodi:docname="verified.svg">
  <defs
     id="defs5117" />
  <sodipodi:namedview
     id="base"
     pagecolor="#ffffff"
     bordercolor="#666666"
     borderopacity="1.0"
     inkscape:pageopacity="0.0"
     inkscape:pageshadow="2"
     inkscape:zoom="22.4"
     inkscape:cx="22.559741"
     inkscape:cy="13.191055"
     inkscape:document-units="mm"
     inkscape:current-layer="layer1"
     showgrid="false"
     inkscape:window-width="2560"
     inkscape:window-height="1361"
     inkscape:window-x="-9"
     inkscape:window-y="-9"
     inkscape:window-maximized="1" />
  <metadata
     id="metadata5120">
    <rdf:RDF>
      <cc:Work
         rdf:about="">
        <dc:format>image/svg+xml</dc:format>
        <dc:type
           rdf:resource="http://purl.org/dc/dcmitype/StillImage" />
        <dc:title></dc:title>
      </cc:Work>
    </rdf:RDF>
  </metadata>
  <g
     inkscape:label="Layer 1"
     inkscape:groupmode="layer"
     id="layer1"
     transform="translate(-113.69472,-160.47474)">
    <path
       style="fill:#7f7f7f;fill-opacity:1;stroke:none;stroke-width:0.26458332;stroke-opacity:1"
       d="m 117.92857,160.47474 c -0.58456,0 -0.99545,0.64518 -1.43712,0.83199 -0.44167,0.18681 -1.17341,0.0246 -1.55649,0.40773 -0.38309,0.38308 -0.22092,1.11534 -0.40773,1.55701 -0.18681,0.44167 -0.83251,0.85256 -0.83251,1.43712 0,0.58457 0.6457,0.99494 0.83251,1.43661 0.18681,0.44167 0.0246,1.17392 0.40773,1.55701 0.38308,0.38308 1.11482,0.22091 1.55649,0.40772 0.44167,0.18681 0.85256,0.83199 1.43712,0.83199 0.58457,0 0.99545,-0.64518 1.43712,-0.83199 0.44167,-0.18681 1.17341,-0.0246 1.5565,-0.40772 0.38308,-0.38309 0.22143,-1.11534 0.40824,-1.55701 0.18681,-0.44167 0.83199,-0.85204 0.83199,-1.43661 0,-0.58456 -0.64518,-0.99545 -0.83199,-1.43712 -0.18681,-0.44167 -0.0252,-1.17393 -0.40824,-1.55701 -0.38309,-0.38308 -1.11483,-0.22092 -1.5565,-0.40773 -0.44167,-0.18681 -0.85255,-0.83199 -1.43712,-0.83199 z m 1.68775,2.68046 c 0.043,0 0.0859,0.0167 0.11886,0.0496 l 0.60668,0.60616 c 0.0659,0.0658 0.0659,0.17188 0,0.23771 l -2.95692,2.95383 c -0.0659,0.0658 -0.17233,0.0658 -0.23823,0 l -0.60668,-0.60617 c 0,0 0,-5.2e-4 0,-5.2e-4 l -0.8413,-0.83665 c -0.0653,-0.0653 -0.0653,-0.17082 0,-0.23616 l 0.60152,-0.60151 c 0.0653,-0.0653 0.17082,-0.0653 0.23616,0 l 0.72243,0.71934 2.23863,-2.23604 c 0.0329,-0.0329 0.0758,-0.0496 0.11885,-0.0496 z"
       id="path4842"
       inkscape:connector-curvature="0"
       inkscape:label="verified" />
  </g>
</svg>
