<?xml version="1.0" encoding="UTF-8" standalone="no"?>
<!-- Created with Inkscape (http://www.inkscape.org/) -->

<svg
   xmlns:dc="http://purl.org/dc/elements/1.1/"
   xmlns:cc="http://creativecommons.org/ns#"
   xmlns:rdf="http://www.w3.org/1999/02/22-rdf-syntax-ns#"
   xmlns:svg="http://www.w3.org/2000/svg"
   xmlns="http://www.w3.org/2000/svg"
   xmlns:sodipodi="http://sodipodi.sourceforge.net/DTD/sodipodi-0.dtd"
   xmlns:inkscape="http://www.inkscape.org/namespaces/inkscape"
   width="8.4596004mm"
   height="9.56738mm"
   viewBox="0 0 8.4596004 9.56738"
   version="1.1"
   id="svg9906"
   inkscape:version="0.92.4 (5da689c313, 2019-01-14)"
   sodipodi:docname="video.svg">
  <defs
     id="defs9900" />
  <sodipodi:namedview
     id="base"
     pagecolor="#ffffff"
     bordercolor="#666666"
     borderopacity="1.0"
     inkscape:pageopacity="0.0"
     inkscape:pageshadow="2"
     inkscape:zoom="15.839192"
     inkscape:cx="17.087588"
     inkscape:cy="23.842632"
     inkscape:document-units="mm"
     inkscape:current-layer="svg9906"
     showgrid="false"
     inkscape:pagecheckerboard="true"
     inkscape:window-width="2560"
     inkscape:window-height="1361"
     inkscape:window-x="-9"
     inkscape:window-y="-9"
     inkscape:window-maximized="1" />
  <metadata
     id="metadata9903">
    <rdf:RDF>
      <cc:Work
         rdf:about="">
        <dc:format>image/svg+xml</dc:format>
        <dc:type
           rdf:resource="http://purl.org/dc/dcmitype/StillImage" />
        <dc:title></dc:title>
      </cc:Work>
    </rdf:RDF>
  </metadata>
  <path
     inkscape:connector-curvature="0"
     style="fill:#ffffff;fill-opacity:1;stroke:none;stroke-width:0.26458332;stroke-opacity:1"
     d="M 0.11472,0 C 0.05092,0 0,0.051 0,0.11472 v 9.33742 c 0,0.0638 0.051,0.11524 0.11472,0.11524 h 0.90486 c -0.0247,-0.021 -0.0413,-0.051 -0.0413,-0.0863 V 8.5602 c 0,-0.0638 0.051,-0.11524 0.11472,-0.11524 h 0.92087 c 0.0638,0 0.11524,0.0515 0.11524,0.11524 v 0.92088 c 0,0.0352 -0.0165,0.0653 -0.0413,0.0863 h 4.21163 c -0.0248,-0.021 -0.0413,-0.0511 -0.0413,-0.0863 V 8.5602 c 0,-0.0638 0.0515,-0.11524 0.11524,-0.11524 h 0.92087 c 0.0638,0 0.11524,0.0515 0.11524,0.11524 v 0.92088 c 0,0.0352 -0.0165,0.0653 -0.0413,0.0863 h 0.97617 c 0.0638,0 0.11524,-0.0515 0.11524,-0.11524 V 0.11472 C 8.4596,0.05092 8.4081,0 8.34436,0 H 7.39248 c 0.01,0.0171 0.0171,0.0361 0.0171,0.0574 v 0.92088 c 0,0.0638 -0.0515,0.11472 -0.11524,0.11472 H 6.37347 C 6.30967,1.093 6.25823,1.042 6.25823,0.97828 V 0.0574 c 0,-0.0213 0.007,-0.0403 0.0171,-0.0574 H 2.11228 c 0.01,0.0171 0.017,0.0361 0.017,0.0574 v 0.92088 c 0,0.0638 -0.0515,0.11472 -0.11524,0.11472 H 1.09317 C 1.02937,1.093 0.97845,1.042 0.97845,0.97828 V 0.0574 c 0,-0.0213 0.007,-0.0403 0.017,-0.0574 z m 0.97824,2.05724 h 0.92087 c 0.0638,0 0.11524,0.0515 0.11524,0.11524 v 0.92087 c 0,0.0638 -0.0515,0.11472 -0.11524,0.11472 H 1.09296 c -0.0638,0 -0.11472,-0.051 -0.11472,-0.11472 V 2.17248 c 0,-0.0638 0.051,-0.11524 0.11472,-0.11524 z m 5.2803,0 h 0.92087 c 0.0638,0 0.11524,0.0515 0.11524,0.11524 v 0.92087 c 0,0.0638 -0.0515,0.11472 -0.11524,0.11472 H 6.37326 c -0.0638,0 -0.11524,-0.051 -0.11524,-0.11472 V 2.17248 c 0,-0.0638 0.0515,-0.11524 0.11524,-0.11524 z m -5.2803,2.12907 h 0.92087 c 0.0638,0 0.11524,0.0515 0.11524,0.11524 v 0.92087 c 0,0.0638 -0.0515,0.11472 -0.11524,0.11472 H 1.09296 c -0.0638,0 -0.11472,-0.051 -0.11472,-0.11472 V 4.30155 c 0,-0.0638 0.051,-0.11524 0.11472,-0.11524 z m 5.2803,0 h 0.92087 c 0.0638,0 0.11524,0.0515 0.11524,0.11524 v 0.92087 c 0,0.0638 -0.0515,0.11472 -0.11524,0.11472 H 6.37326 c -0.0638,0 -0.11524,-0.051 -0.11524,-0.11472 V 4.30155 c 0,-0.0638 0.0515,-0.11524 0.11524,-0.11524 z m -5.2803,2.12958 h 0.92087 c 0.0638,0 0.11524,0.0515 0.11524,0.11524 v 0.92088 c 0,0.0638 -0.0515,0.11472 -0.11524,0.11472 H 1.09296 c -0.0638,0 -0.11472,-0.051 -0.11472,-0.11472 V 6.43113 c 0,-0.0638 0.051,-0.11524 0.11472,-0.11524 z m 5.2803,0 h 0.92087 c 0.0638,0 0.11524,0.0515 0.11524,0.11524 v 0.92088 c 0,0.0638 -0.0515,0.11472 -0.11524,0.11472 H 6.37326 c -0.0638,0 -0.11524,-0.051 -0.11524,-0.11472 V 6.43113 c 0,-0.0638 0.0515,-0.11524 0.11524,-0.11524 z"
     id="rect4639"
     inkscape:label="video" />
</svg>
